<svg xmlns="http://www.w3.org/2000/svg" viewBox="0 0 640 400" role="img" aria-labelledby="title desc">
  <title id="title">Validierungsreport</title>
  <desc id="desc">Report mit Testfällen und Status.</desc>
  <defs>
    <linearGradient id="bg" x1="0" y1="0" x2="1" y2="1">
      <stop offset="0" stop-color="#2563eb" stop-opacity="0.35" />
      <stop offset="1" stop-color="#22c55e" stop-opacity="0.45" />
    </linearGradient>
  </defs>
  <rect width="640" height="400" rx="24" fill="url(#bg)" />
  <rect x="84" y="72" width="472" height="256" rx="24" fill="#ffffff" opacity="0.92" />
  <text x="120" y="122" font-size="30" font-family="'Poppins','Arial',sans-serif" fill="#0f172a" opacity="0.85">Validierungsreport</text>
  <g font-family="'Poppins','Arial',sans-serif" font-size="22" fill="#0f172a" opacity="0.8">
    <text x="120" y="168">Testfall</text>
    <text x="360" y="168">Erwartung</text>
    <text x="520" y="168">Status</text>
  </g>
  <g font-family="'Poppins','Arial',sans-serif" font-size="20" fill="#0f172a" opacity="0.8">
    <text x="120" y="206">Datenmigration</text>
    <text x="120" y="244">Rollenprüfung</text>
    <text x="120" y="282">Report-Abgleich</text>
    <text x="120" y="320">Webhook-Trigger</text>
  </g>
  <g stroke="#1f63e6" stroke-width="2" opacity="0.2">
    <line x1="120" y1="180" x2="556" y2="180" />
    <line x1="120" y1="218" x2="556" y2="218" />
    <line x1="120" y1="256" x2="556" y2="256" />
    <line x1="120" y1="294" x2="556" y2="294" />
    <line x1="120" y1="332" x2="556" y2="332" />
  </g>
  <g>
    <rect x="360" y="186" width="132" height="20" rx="10" fill="#dbeafe" />
    <rect x="360" y="224" width="144" height="20" rx="10" fill="#dcfce7" />
    <rect x="360" y="262" width="160" height="20" rx="10" fill="#ede9fe" />
    <rect x="360" y="300" width="132" height="20" rx="10" fill="#dbeafe" />
  </g>
  <g>
    <circle cx="536" cy="196" r="14" fill="#22c55e" />
    <circle cx="536" cy="234" r="14" fill="#22c55e" />
    <circle cx="536" cy="272" r="14" fill="#facc15" />
    <circle cx="536" cy="310" r="14" fill="#22c55e" />
  </g>
</svg>
