<svg xmlns="http://www.w3.org/2000/svg" viewBox="0 0 640 400" role="img" aria-labelledby="title desc">
  <title id="title">Risiko-Matrix</title>
  <desc id="desc">Matrix mit Risiken und Maßnahmen.</desc>
  <defs>
    <linearGradient id="bg" x1="0" y1="1" x2="1" y2="0">
      <stop offset="0" stop-color="#f97316" stop-opacity="0.35" />
      <stop offset="1" stop-color="#1f63e6" stop-opacity="0.45" />
    </linearGradient>
  </defs>
  <rect width="640" height="400" rx="24" fill="url(#bg)" />
  <rect x="92" y="76" width="456" height="248" rx="22" fill="#ffffff" opacity="0.92" />
  <text x="128" y="124" font-size="30" font-family="'Poppins','Arial',sans-serif" fill="#0f172a" opacity="0.85">Risiko-Matrix</text>
  <g font-family="'Poppins','Arial',sans-serif" font-size="22" fill="#0f172a" opacity="0.8">
    <text x="128" y="172">Auswirkung</text>
    <text x="420" y="312">Wahrscheinlichkeit</text>
  </g>
  <g transform="translate(148 176)">
    <rect x="0" y="0" width="344" height="180" fill="#f8fafc" rx="18" />
    <rect x="16" y="16" width="96" height="48" rx="12" fill="#22c55e" opacity="0.6" />
    <rect x="132" y="16" width="96" height="48" rx="12" fill="#facc15" opacity="0.7" />
    <rect x="248" y="16" width="96" height="48" rx="12" fill="#ef4444" opacity="0.7" />
    <rect x="16" y="84" width="96" height="48" rx="12" fill="#22c55e" opacity="0.6" />
    <rect x="132" y="84" width="96" height="48" rx="12" fill="#f97316" opacity="0.65" />
    <rect x="248" y="84" width="96" height="48" rx="12" fill="#ef4444" opacity="0.7" />
    <rect x="16" y="152" width="96" height="12" rx="6" fill="#1f63e6" opacity="0.4" />
    <rect x="132" y="152" width="196" height="12" rx="6" fill="#1f63e6" opacity="0.4" />
  </g>
  <g font-family="'Poppins','Arial',sans-serif" font-size="20" fill="#0f172a" opacity="0.7">
    <text x="172" y="222">Niedrig</text>
    <text x="292" y="222">Mittel</text>
    <text x="408" y="222">Hoch</text>
    <text x="172" y="290">Backup prüfen</text>
    <text x="292" y="290">Schulung planen</text>
    <text x="408" y="290">Sofortmaßnahme</text>
  </g>
</svg>
