<svg xmlns="http://www.w3.org/2000/svg" viewBox="0 0 640 400" role="img" aria-labelledby="title desc">
  <title id="title">JRXML Vorlage</title>
  <desc id="desc">Mockup einer Reportvorlage mit Abschnittsstruktur.</desc>
  <defs>
    <linearGradient id="bg" x1="0" y1="0" x2="1" y2="1">
      <stop offset="0" stop-color="#1f63e6" stop-opacity="0.25" />
      <stop offset="1" stop-color="#0f172a" stop-opacity="0.65" />
    </linearGradient>
  </defs>
  <rect width="640" height="400" rx="24" fill="url(#bg)" />
  <rect x="60" y="56" width="520" height="288" rx="18" fill="#ffffff" opacity="0.92" />
  <rect x="92" y="96" width="180" height="32" rx="8" fill="#1f63e6" opacity="0.85" />
  <rect x="92" y="146" width="456" height="18" rx="6" fill="#1f63e6" opacity="0.35" />
  <rect x="92" y="178" width="456" height="18" rx="6" fill="#1f63e6" opacity="0.28" />
  <rect x="92" y="210" width="210" height="18" rx="6" fill="#1f63e6" opacity="0.22" />
  <rect x="92" y="258" width="456" height="66" rx="10" fill="#f1f5ff" />
  <line x1="148" y1="258" x2="148" y2="324" stroke="#1f63e6" stroke-width="2" opacity="0.35" />
  <line x1="204" y1="258" x2="204" y2="324" stroke="#1f63e6" stroke-width="2" opacity="0.35" />
  <line x1="260" y1="258" x2="260" y2="324" stroke="#1f63e6" stroke-width="2" opacity="0.35" />
  <line x1="316" y1="258" x2="316" y2="324" stroke="#1f63e6" stroke-width="2" opacity="0.35" />
  <line x1="372" y1="258" x2="372" y2="324" stroke="#1f63e6" stroke-width="2" opacity="0.35" />
  <line x1="428" y1="258" x2="428" y2="324" stroke="#1f63e6" stroke-width="2" opacity="0.35" />
  <line x1="484" y1="258" x2="484" y2="324" stroke="#1f63e6" stroke-width="2" opacity="0.35" />
  <text x="92" y="356" font-family="'Poppins', 'Arial', sans-serif" font-size="26" fill="#1f2937" opacity="0.7">Abschnitte · Variablen · Tabellen</text>
</svg>
