<svg xmlns="http://www.w3.org/2000/svg" viewBox="0 0 640 400" role="img" aria-labelledby="title desc">
  <title id="title">As-Found/As-Left</title>
  <desc id="desc">Protokoll mit Vergleich von Messwerten.</desc>
  <defs>
    <linearGradient id="bg" x1="0" y1="1" x2="1" y2="0">
      <stop offset="0" stop-color="#1f63e6" stop-opacity="0.2" />
      <stop offset="1" stop-color="#9333ea" stop-opacity="0.45" />
    </linearGradient>
  </defs>
  <rect width="640" height="400" rx="24" fill="url(#bg)" />
  <rect x="72" y="80" width="496" height="248" rx="18" fill="#ffffff" opacity="0.92" />
  <text x="108" y="128" font-size="28" font-family="'Poppins','Arial',sans-serif" fill="#0f172a" opacity="0.8">Kalibrierpunkt</text>
  <text x="360" y="128" font-size="28" font-family="'Poppins','Arial',sans-serif" fill="#0f172a" opacity="0.8">Toleranz</text>
  <rect x="108" y="148" width="360" height="10" rx="5" fill="#dbeafe" />
  <rect x="108" y="184" width="360" height="10" rx="5" fill="#ede9fe" />
  <rect x="108" y="220" width="360" height="10" rx="5" fill="#dbeafe" />
  <rect x="108" y="256" width="360" height="10" rx="5" fill="#ede9fe" />
  <rect x="108" y="292" width="360" height="10" rx="5" fill="#dbeafe" />
  <rect x="148" y="144" width="146" height="18" rx="9" fill="#2563eb" opacity="0.6" />
  <rect x="148" y="180" width="192" height="18" rx="9" fill="#22c55e" opacity="0.7" />
  <rect x="148" y="252" width="212" height="18" rx="9" fill="#ef4444" opacity="0.65" />
  <rect x="148" y="216" width="168" height="18" rx="9" fill="#1d4ed8" opacity="0.6" />
  <rect x="148" y="288" width="202" height="18" rx="9" fill="#22c55e" opacity="0.7" />
  <text x="320" y="184" font-size="20" font-family="'Poppins','Arial',sans-serif" fill="#16a34a">As-Left ✓</text>
  <text x="320" y="256" font-size="20" font-family="'Poppins','Arial',sans-serif" fill="#dc2626">As-Found ✕</text>
</svg>
